<svg xmlns="http://www.w3.org/2000/svg" viewBox="0 0 1440 320">
  <path fill="#000b76" fill-opacity="1" d="M0,192L34.3,165.3C68.6,139,137,85,206,85.3C274.3,85,343,139,411,165.3C480,192,549,192,617,192C685.7,192,754,192,823,165.3C891.4,139,960,85,1029,74.7C1097.1,64,1166,96,1234,144C1302.9,192,1371,256,1406,288L1440,320L1440,320L1405.7,320C1371.4,320,1303,320,1234,320C1165.7,320,1097,320,1029,320C960,320,891,320,823,320C754.3,320,686,320,617,320C548.6,320,480,320,411,320C342.9,320,274,320,206,320C137.1,320,69,320,34,320L0,320Z"></path>
</svg>